<?xml version="1.0" standalone="no"?>
<!DOCTYPE svg PUBLIC "-//W3C//DTD SVG 20010904//EN"
 "http://www.w3.org/TR/2001/REC-SVG-20010904/DTD/svg10.dtd">
<svg version="1.0" xmlns="http://www.w3.org/2000/svg"
 width="2635.000000pt" height="2392.000000pt" viewBox="0 0 2635.000000 2392.000000"
 preserveAspectRatio="xMidYMid meet">
<metadata>
Created by potrace 1.15, written by Peter Selinger 2001-2017
</metadata>
<g transform="translate(0.000000,2392.000000) scale(0.100000,-0.100000)"
fill="#000000" stroke="none">
<path d="M2850 23820 l0 -100 -210 0 -210 0 0 -547 c0 -302 -11 -2841 -25
-5643 -14 -2802 -25 -5317 -25 -5587 l0 -493 354 0 353 0 7 743 c3 408 15
2877 26 5487 11 2610 23 4922 26 5138 l6 392 11244 0 11244 0 0 -11245 0
-11245 -11395 0 -11395 0 0 -360 0 -360 11610 0 11610 0 0 250 0 250 140 0
140 0 0 11590 0 11590 -120 0 -120 0 0 120 0 120 -11630 0 -11630 0 0 -100z"/>
<path d="M20050 19214 c-290 -36 -556 -107 -860 -231 -477 -193 -836 -441
-1187 -818 -353 -378 -646 -882 -898 -1545 -163 -430 -327 -988 -720 -2450
-314 -1169 -427 -1586 -437 -1622 -10 -34 -16 -39 -67 -54 -382 -111 -923
-310 -1141 -419 -248 -125 -443 -290 -513 -435 -114 -234 -24 -510 205 -624
96 -49 160 -60 303 -53 180 9 380 58 679 166 77 28 141 50 142 48 2 -1 -49
-178 -112 -392 -63 -215 -254 -867 -425 -1450 -652 -2227 -827 -2780 -1212
-3840 -319 -879 -359 -974 -574 -1363 -223 -404 -277 -645 -189 -838 31 -67
114 -152 181 -183 164 -78 490 -104 705 -56 269 61 496 256 731 630 80 127
189 341 267 526 129 304 514 1302 692 1794 520 1439 1015 3047 1633 5313 24
89 47 165 50 168 7 8 163 27 457 58 710 75 1231 88 1829 46 340 -24 609 26
731 136 180 163 84 476 -243 790 -104 101 -265 218 -379 275 -243 123 -638
174 -1153 150 -231 -11 -570 -40 -765 -66 -57 -8 -105 -13 -107 -12 -1 1 66
252 148 557 141 521 221 838 434 1715 240 989 413 1507 682 2045 241 482 452
773 692 953 165 124 328 194 507 218 172 23 291 -15 404 -130 145 -147 217
-375 208 -661 -4 -130 -8 -155 -37 -239 -58 -172 -138 -289 -354 -522 -263
-283 -328 -367 -398 -512 -72 -152 -97 -314 -65 -433 39 -146 179 -308 401
-463 213 -148 336 -193 540 -194 253 -1 439 78 633 267 155 151 276 325 405
582 307 612 389 1091 281 1634 -163 818 -781 1381 -1664 1515 -104 15 -373 27
-440 19z"/>
<path d="M11100 13864 c-400 -26 -750 -95 -1140 -223 -832 -275 -1489 -683
-2124 -1317 -430 -431 -754 -891 -1063 -1509 -381 -761 -607 -1554 -664 -2324
-13 -182 -7 -649 11 -791 72 -586 234 -1054 485 -1405 195 -271 494 -538 790
-703 243 -135 579 -248 890 -299 134 -21 452 -24 625 -4 519 58 973 193 1495
445 705 340 1036 642 1314 1196 120 239 170 424 157 577 -17 211 -144 332
-316 304 -152 -25 -289 -112 -511 -326 -349 -337 -649 -551 -1019 -729 -318
-152 -613 -231 -905 -242 -127 -5 -149 -3 -237 19 -255 67 -573 246 -719 405
-235 257 -341 616 -326 1102 14 435 105 813 387 1605 392 1102 777 1795 1294
2333 252 262 499 442 836 611 432 215 770 266 993 149 79 -42 183 -145 225
-225 96 -183 105 -442 27 -748 -72 -281 -196 -528 -365 -724 -89 -103 -189
-179 -337 -254 -70 -36 -154 -85 -186 -108 -71 -53 -133 -142 -143 -204 -25
-167 48 -331 234 -526 176 -185 366 -261 652 -262 161 0 283 20 430 69 733
245 1251 1144 1253 2174 0 390 -65 694 -215 995 -299 602 -845 917 -1623 938
-82 3 -175 3 -205 1z"/>
<path d="M2506 7884 c-249 -45 -465 -161 -657 -353 -269 -269 -399 -603 -386
-991 9 -267 78 -485 225 -705 150 -227 376 -402 632 -493 148 -52 238 -66 415
-66 177 0 267 14 415 66 427 151 744 527 837 995 24 122 24 375 -1 498 -52
264 -165 487 -340 672 -187 199 -435 333 -695 378 -105 19 -339 18 -445 -1z"/>
</g>
</svg>
